<svg xmlns="http://www.w3.org/2000/svg" version="1.1" xmlns:xlink="http://www.w3.org/1999/xlink" xmlns:svgjs="http://svgjs.dev/svgjs" width="1000" height="1000" viewBox="0 0 1000 1000"><rect width="1000" height="1000" fill="#ffffff"></rect><g transform="matrix(0.7,0,0,0.7,149.57575757575756,252.30304926245074)"><svg viewBox="0 0 396 280" data-background-color="#ffffff" preserveAspectRatio="xMidYMid meet" height="707" width="1000" xmlns="http://www.w3.org/2000/svg" xmlns:xlink="http://www.w3.org/1999/xlink"><g id="tight-bounds" transform="matrix(1,0,0,1,0.2400000000000091,0.1399532001499324)"><svg viewBox="0 0 395.52 279.72" height="279.72" width="395.52"><g><svg viewBox="0 0 395.52 279.72" height="279.72" width="395.52"><g><svg viewBox="0 0 395.52 279.72" height="279.72" width="395.52"><g><svg viewBox="0 0 395.52 279.72" height="279.72" width="395.52"><g><svg viewBox="0 0 395.52 279.72" height="279.72" width="395.52"><g transform="matrix(1,0,0,1,95.70146727714408,57.44670465270788)"><svg viewBox="0 0 204.11706544571183 164.82659069458427" height="164.82659069458427" width="204.11706544571183"><g><circle r="82" cx="102.05853272285592" cy="82.41329534729213" fill="#8b3c7f" data-fill-palette-color="accent"></circle><svg xmlns="http://www.w3.org/2000/svg" xmlns:xlink="http://www.w3.org/1999/xlink" version="1.1" x="34.95935926186291" y="34.95935926186291" viewBox="0 -4.76837158203125e-7 100 99.99911499023438" enable-background="new 0 0 100 100" xml:space="preserve" width="134.198346921986" height="94.90787217085845" class="icon-o-0" data-fill-palette-color="quaternary" id="o-0"><path d="M69.089 6.549c-3.158-2.588-5.352-1.979-8.516 3.662-2.09 3.73-5.417 4.18-7.455 4.066l0.014-0.746c2.363-1.175 4.029-3.558 4.029-6.367C57.161 3.2 53.952 0 50 0c-3.952 0-7.174 3.2-7.174 7.165 0 2.809 1.667 5.192 4.036 6.361l0.007 0.752c-2.031 0.114-5.365-0.335-7.455-4.066-3.151-5.641-5.352-6.25-8.502-3.662C27.741 9.141 15.241 24.079 0 22.708c0 0 3.021 6.859 11.256 5.339 0 0 4.401 4.567 11.543 1.37 0 0 3.711 3.347 9.616 0.303 0 0 4.388 3.353 9.069 0.456 0 0 2.643 1.914 5.58 1.419l0.188 17.246c-0.332-0.065-0.599-0.143-0.95-0.205-0.013-0.006-5.117-1.1-10.515-2.614-5.195-1.361-10.898-3.568-11.738-4.717 0.072-0.072 0.189-0.127 0.339-0.199 0.462-0.244 1.25-0.495 2.188-0.687 1.907-0.388 4.492-0.586 7.09-0.69 5.163-0.186 6.094 0.039 6.185 0.056 0.007-0.163 2.988 0.352 3.809-2.686-0.032-0.026 0.059-0.15 0.007-0.222-0.169-2.09-1.777-2.194-3.093-2.438-2.135-0.28-1.022-0.169-3.899-0.133-4.727 0.352-19.291-0.827-21.126 6.839 0 0.215-0.013 0.352-0.039 0.541 0.612 6.676 14.434 9.573 24.447 11.569-3.398 2.327-5.215 5.354-5.938 9.268-0.345 4.173 2.969 8.145 10.664 12.584-5.847 4.141-9.688 8.027-9.375 12.722 0.547 3.828 3.926 8.945 10.566 12.168 0.02 0.007 0.026-0.007 0.039 0 0 0 0.006 0 0.02 0 0 0-4.648-7.09-4.961-10.97-0.306-2.266 0.983-5.612 6.634-9.643l0.163 14.18h0.026c0.039 1.205 0.97 2.168 2.142 2.168 1.171 0 2.103-0.963 2.142-2.168h0.02l0.188-13.809c5.208 3.861 6.387 7.07 6.087 9.271-0.312 3.88-4.954 10.97-4.954 10.97 0.007 0 0.007 0 0.013 0 0 0 0.014 0.007 0.046 0 6.634-3.223 10.02-8.34 10.56-12.168 0.312-4.694-3.528-8.581-9.368-12.722 7.688-4.439 11.009-8.411 10.664-12.584-0.723-3.913-2.539-6.94-5.944-9.268 10.02-1.996 23.835-4.893 24.447-11.569-0.026-0.189-0.039-0.326-0.039-0.541-1.83-7.666-16.4-6.487-21.127-6.839-2.877-0.036-1.764-0.146-3.899 0.133-1.315 0.244-2.923 0.348-3.093 2.438-0.052 0.072 0.046 0.195 0.014 0.222 0.82 3.037 3.802 2.522 3.809 2.686 0.084-0.017 1.016-0.241 6.185-0.056 2.591 0.104 5.176 0.303 7.083 0.69 0.944 0.192 1.719 0.442 2.188 0.687 0.15 0.072 0.273 0.127 0.346 0.199-0.84 1.149-6.543 3.356-11.738 4.717-5.404 1.514-10.508 2.607-10.521 2.614-0.13 0.026-0.234 0.052-0.364 0.075l0.222-17.119c2.955 0.518 5.618-1.416 5.618-1.416 4.668 2.897 9.069-0.456 9.069-0.456 5.904 3.044 9.609-0.303 9.609-0.303 7.142 3.197 11.543-1.37 11.543-1.37C96.973 29.567 100 22.708 100 22.708 84.753 24.079 72.253 9.141 69.089 6.549zM43.268 67.711c-1.907-1.185-2.799-2.786-2.624-3.867 0.104-1.504-0.417-5.091 6.699-7.702l0.163 14.245C46.133 69.521 44.713 68.629 43.268 67.711zM58.698 63.844c0.176 1.081-0.717 2.683-2.624 3.867-1.25 0.801-2.474 1.562-3.672 2.317l0.183-13.665C59.075 58.961 58.594 62.386 58.698 63.844z" fill="#ffffff" data-fill-palette-color="quaternary"></path></svg></g></svg></g><path d="M97.354 85.364L94.316 92.949 92.251 92.122 93.213 89.719 73.369 81.772 86.944 97.131 85.922 99.685 65.497 101.429 85.341 109.376 86.575 106.297 88.64 107.124 85.606 114.699 83.541 113.872 84.398 111.732 62.272 102.871 61.415 105.012 59.35 104.185 61.226 99.5 84.293 97.551 68.947 80.219 70.932 75.262 72.997 76.09 72.035 78.493 94.161 87.353 95.288 84.537ZM94.124 65.866V65.866C90.842 62.951 88.986 59.778 88.553 56.347 88.122 52.925 89.034 49.943 91.29 47.403V47.403C96.564 41.466 102.784 41.68 109.952 48.046V48.046C113.218 50.947 115.056 54.091 115.466 57.476 115.877 60.87 114.948 63.845 112.678 66.401V66.401C107.4 72.343 101.215 72.165 94.124 65.866ZM95.89 63.756V63.756C101.812 69.016 106.803 69.361 110.864 64.789V64.789C112.614 62.818 113.283 60.487 112.871 57.794 112.453 55.097 110.853 52.513 108.071 50.042V50.042C102.154 44.786 97.165 44.443 93.105 49.015V49.015C91.35 50.991 90.684 53.329 91.106 56.031 91.538 58.732 93.133 61.307 95.89 63.756ZM122.843 38.03V38.03C120.593 34.261 119.78 30.676 120.403 27.274 121.024 23.881 122.793 21.314 125.711 19.572V19.572C132.53 15.503 138.396 17.584 143.309 25.815V25.815C145.547 29.566 146.352 33.117 145.722 36.469 145.09 39.829 143.306 42.385 140.371 44.137V44.137C133.546 48.21 127.703 46.174 122.843 38.03ZM125.163 36.551V36.551C129.222 43.352 133.877 45.187 139.128 42.053V42.053C141.391 40.702 142.732 38.681 143.151 35.989 143.567 33.292 142.821 30.345 140.914 27.15V27.15C136.858 20.354 132.205 18.523 126.954 21.656V21.656C124.685 23.011 123.345 25.039 122.932 27.743 122.53 30.448 123.273 33.384 125.163 36.551ZM158.698 7.76L156.301 8.343 155.775 6.181 165.237 3.88C168.768 3.021 171.85 3.357 174.484 4.888 177.12 6.426 179.001 9.51 180.127 14.141V14.141C181.242 18.726 181.33 22.337 180.389 24.973V24.973C179.563 27.283 177.825 29.038 175.175 30.237V30.237C174.001 30.745 172.589 31.199 170.938 31.601V31.601L162.459 33.663 161.933 31.502 164.331 30.918ZM165.567 6.089V6.089L161.361 7.112 166.993 30.271 170.216 29.487C173.694 28.641 175.932 27.417 176.93 25.814V25.814C177.996 24.147 178.448 22.126 178.286 19.751V19.751C178.197 18.357 177.936 16.769 177.502 14.988V14.988C176.548 11.064 175 8.433 172.856 7.095 170.715 5.763 168.285 5.428 165.567 6.089ZM204.357 25.913V25.913C207.347 26.056 209.601 25.408 211.121 23.969V23.969C211.997 23.154 212.464 22.154 212.52 20.969 212.577 19.784 212.334 18.793 211.792 17.998 211.25 17.203 210.534 16.575 209.645 16.113 208.749 15.652 207.75 15.24 206.647 14.876 205.544 14.513 204.442 14.13 203.341 13.726 202.24 13.322 201.247 12.86 200.36 12.338 199.468 11.809 198.753 11.087 198.217 10.17 197.68 9.253 197.442 8.176 197.501 6.937V6.937C197.604 4.782 198.497 3.06 200.178 1.77 201.854 0.474 204.024-0.111 206.691 0.017 209.357 0.145 211.846 0.534 214.157 1.185V1.185L214.155 1.225 214.276 1.231 214.479 6.292 212.484 6.521 212.201 3.116C210.713 2.775 209.059 2.56 207.241 2.473 205.423 2.386 203.822 2.704 202.438 3.427 201.059 4.158 200.336 5.25 200.266 6.705 200.196 8.159 200.679 9.289 201.713 10.095 202.754 10.9 204.033 11.535 205.55 11.999 207.066 12.464 208.581 12.971 210.093 13.523 211.598 14.081 212.861 14.978 213.882 16.215 214.903 17.452 215.366 19.04 215.274 20.979V20.979C215.149 23.585 214.085 25.501 212.083 26.728 210.087 27.956 207.648 28.5 204.766 28.362V28.362C201.136 28.188 198.136 27.221 195.763 25.461V25.461L196.008 21.19 197.998 21.083 197.932 24.147C199.926 25.215 202.067 25.803 204.357 25.913ZM246.72 10.353V10.353C243.821 9.414 241.177 9.744 238.788 11.344 236.403 12.953 234.556 15.78 233.245 19.827V19.827C232.68 21.571 232.365 23.156 232.3 24.58 232.229 26.003 232.341 27.155 232.636 28.038 232.929 28.926 233.394 29.7 234.031 30.36V30.36C235.038 31.452 236.362 32.263 238.004 32.795V32.795C240.537 33.616 243.165 34.155 245.888 34.414V34.414L245.701 36.564C245.215 36.577 243.99 36.4 242.026 36.033 240.068 35.668 238.499 35.294 237.319 34.912 236.138 34.529 235.139 34.114 234.321 33.664 233.503 33.215 232.694 32.563 231.893 31.709 231.093 30.854 230.5 29.875 230.113 28.772 229.72 27.667 229.541 26.273 229.576 24.591 229.612 22.902 229.963 21.032 230.628 18.979V18.979C232.097 14.445 234.282 11.245 237.182 9.378V9.378C240.218 7.421 243.622 7.053 247.393 8.275V8.275C248.541 8.647 249.753 9.16 251.029 9.814 252.305 10.469 253.192 10.99 253.69 11.378V11.378L252.36 17.059 250.387 16.717 251.192 12.397C249.666 11.506 248.176 10.824 246.72 10.353ZM277.778 58.314L271.122 53.593 272.409 51.778 274.421 53.206 275.94 47.849 265.787 40.647 261.266 43.874 263.641 45.559 262.354 47.374 255.698 42.652 256.986 40.838 259.163 42.382 281.918 26.575 283.922 27.996 276.796 54.89 279.065 56.499ZM276.516 45.778L281.036 29.706 267.518 39.395ZM308.258 53.151L306.683 51.147 308.431 49.772 313.625 56.378C315.671 58.98 316.745 61.262 316.846 63.223 316.953 65.18 315.771 67.129 313.302 69.071 310.832 71.013 308.499 71.792 306.303 71.409 304.102 71.031 302.011 69.583 300.032 67.066V67.066L298.107 64.617 291.215 70.036 292.99 72.294 291.241 73.669 286.198 67.254 287.946 65.879 289.521 67.882ZM311.751 57.594V57.594L309.951 55.305 299.856 63.242 301.656 65.532C303.156 67.439 304.693 68.533 306.268 68.813 307.842 69.102 309.577 68.501 311.475 67.009 313.372 65.517 314.272 64.055 314.174 62.622 314.076 61.199 313.268 59.523 311.751 57.594ZM328.404 84.912L327.445 82.638 329.495 81.773 336.17 97.593 335.931 97.65 331.002 100.301 329.917 98.563 333.334 96.594 329.47 87.436 319.492 91.647 322.916 99.761 325.264 98.771 326.129 100.82 319.728 103.521 318.863 101.472 320.876 100.622 317.451 92.508 307.511 96.703 311.8 106.867 316.685 105.464 317.269 107.369 310.521 109.558 303.437 92.769 305.486 91.905 306.445 94.178ZM79.194 185.582L78.262 182.611 72.222 184.504C71.746 184.653 71.373 184.533 71.103 184.145V184.145C71.026 184.035 70.96 183.893 70.906 183.719 70.849 183.539 70.866 183.322 70.956 183.068 71.052 182.811 71.268 182.631 71.602 182.526V182.526L85.719 178.101C86.111 177.978 86.481 178.088 86.829 178.431V178.431C86.925 178.535 86.997 178.665 87.046 178.819V178.819L88.304 182.833C89.35 186.172 88.968 188.524 87.157 189.89V189.89C86.737 190.219 86.264 190.467 85.736 190.632 85.202 190.799 84.685 190.873 84.184 190.853 83.685 190.84 83.213 190.741 82.766 190.556 82.32 190.371 81.923 190.107 81.575 189.764 81.227 189.421 80.901 189.035 80.598 188.608V188.608C80.033 187.775 79.565 186.766 79.194 185.583ZM79.854 182.112L80.898 185.44C81.299 186.721 81.81 187.595 82.431 188.065V188.065C83.199 188.714 84.105 188.875 85.147 188.549V188.549C86.15 188.234 86.779 187.592 87.033 186.622V186.622C87.236 185.895 87.159 184.894 86.803 183.621V183.621L85.75 180.264ZM76.747 197.288L90.24 191.221C90.615 191.052 91 191.127 91.394 191.445V191.445C91.502 191.537 91.585 191.648 91.643 191.777V191.777L93.708 196.37C94.825 198.853 94.919 200.822 93.99 202.274V202.274C93.585 202.819 92.964 203.279 92.127 203.655 91.291 204.031 90.458 204.076 89.628 203.792 88.801 203.513 88.057 202.913 87.398 201.989V201.989L87.315 202.027C87.583 203.082 87.526 203.942 87.146 204.609V204.609C86.822 205.138 86.286 205.623 85.538 206.063 84.781 206.5 84.19 206.847 83.766 207.104V207.104C83.136 207.461 82.44 207.844 81.678 208.254V208.254C81.358 208.397 81.077 208.405 80.835 208.278 80.599 208.147 80.426 207.959 80.315 207.713 80.205 207.467 80.179 207.22 80.237 206.972 80.293 206.718 80.454 206.509 80.72 206.345V206.345C81.548 205.884 82.284 205.475 82.929 205.119 83.566 204.759 84.098 204.438 84.526 204.157 84.954 203.876 85.289 203.603 85.532 203.338 85.773 203.068 85.926 202.784 85.993 202.488V202.488C86.104 201.98 85.93 201.164 85.469 200.041V200.041L83.835 196.407 77.61 199.206C77.155 199.411 76.774 199.345 76.468 199.01V199.01C76.379 198.91 76.294 198.77 76.214 198.592 76.134 198.414 76.122 198.19 76.178 197.921 76.238 197.643 76.428 197.432 76.747 197.288ZM85.301 195.748L86.57 198.57C87.372 200.353 88.195 201.428 89.04 201.794V201.794C89.636 202.066 90.335 202.044 91.139 201.727V201.727C92.245 201.229 92.792 200.488 92.778 199.504V199.504C92.801 198.947 92.727 198.437 92.556 197.974 92.378 197.514 92.23 197.152 92.112 196.888V196.888L90.54 193.392ZM84.115 212.44L97.044 205.188C97.426 204.974 97.799 205.004 98.162 205.28V205.28C98.239 205.376 98.341 205.516 98.467 205.7 98.597 205.89 98.639 206.11 98.594 206.359 98.543 206.612 98.364 206.824 98.058 206.996V206.996L85.129 214.248C84.694 214.492 84.309 214.46 83.975 214.153V214.153C83.88 214.067 83.782 213.933 83.679 213.751 83.58 213.575 83.55 213.356 83.589 213.094 83.634 212.83 83.809 212.611 84.115 212.44ZM97.094 214.347C96.283 214.685 95.546 215.091 94.882 215.565 94.223 216.035 93.597 216.602 93.003 217.266 92.414 217.927 91.993 218.637 91.74 219.397 91.488 220.157 91.406 220.936 91.495 221.734 91.584 222.532 91.922 223.342 92.509 224.165 93.097 224.988 93.759 225.58 94.496 225.94 95.233 226.3 95.997 226.476 96.786 226.468 97.575 226.459 98.383 226.292 99.211 225.967 100.044 225.637 100.79 225.238 101.449 224.768 102.113 224.294 102.73 223.721 103.302 223.048 103.874 222.375 104.292 221.666 104.556 220.923 104.821 220.179 104.902 219.4 104.802 218.586 104.701 217.772 104.357 216.953 103.77 216.13 103.182 215.307 102.526 214.724 101.8 214.38 101.075 214.036 100.312 213.861 99.511 213.852 98.71 213.844 97.904 214.009 97.094 214.347ZM93.578 213.651V213.651C94.549 212.958 95.573 212.443 96.649 212.105 97.725 211.768 98.775 211.661 99.798 211.784V211.784C101.919 211.993 103.706 213.099 105.159 215.101V215.101C106.62 217.148 107.1 219.219 106.6 221.315V221.315C106.375 222.312 105.927 223.262 105.254 224.164 104.577 225.061 103.753 225.856 102.782 226.549V226.549C101.794 227.254 100.753 227.79 99.657 228.158 98.563 228.517 97.516 228.634 96.517 228.51V228.51C94.389 228.29 92.594 227.156 91.134 225.11V225.11C89.685 223.079 89.212 221.036 89.715 218.979V218.979C89.948 217.959 90.402 216.994 91.077 216.082 91.757 215.166 92.59 214.356 93.578 213.651ZM99.816 234.113L110.611 223.997C110.911 223.716 111.299 223.662 111.775 223.835V223.835C111.907 223.887 112.021 223.965 112.118 224.068V224.068L115.561 227.742C117.424 229.729 118.151 231.561 117.744 233.236V233.236C117.537 233.882 117.099 234.519 116.43 235.146 115.761 235.773 114.988 236.087 114.11 236.087 113.237 236.092 112.339 235.765 111.416 235.105V235.105L111.35 235.167C111.945 236.079 112.171 236.911 112.027 237.665V237.665C111.893 238.271 111.544 238.903 110.979 239.562 110.404 240.221 109.958 240.74 109.64 241.121V241.121C109.16 241.664 108.626 242.252 108.038 242.886V242.886C107.782 243.126 107.519 243.225 107.248 243.183 106.983 243.136 106.758 243.014 106.573 242.817 106.389 242.621 106.284 242.395 106.259 242.142 106.229 241.883 106.314 241.633 106.512 241.392V241.392C107.146 240.687 107.71 240.062 108.204 239.515 108.689 238.968 109.089 238.492 109.402 238.087 109.716 237.683 109.945 237.316 110.089 236.986 110.229 236.652 110.282 236.335 110.249 236.033V236.033C110.189 235.516 109.759 234.801 108.959 233.888V233.888L106.235 230.981 101.254 235.648C100.89 235.989 100.509 236.051 100.111 235.833V235.833C99.994 235.767 99.869 235.663 99.735 235.52 99.601 235.378 99.517 235.17 99.483 234.897 99.449 234.614 99.56 234.353 99.816 234.113ZM107.408 229.881L109.524 232.139C110.861 233.566 111.988 234.315 112.906 234.388V234.388C113.558 234.452 114.212 234.204 114.869 233.643V233.643C115.755 232.814 116.031 231.935 115.699 231.009V231.009C115.54 230.474 115.304 230.016 114.992 229.634 114.675 229.256 114.418 228.962 114.22 228.75V228.75L111.599 225.954ZM111.703 246.055L121.578 234.999C121.869 234.672 122.232 234.58 122.665 234.723V234.723C122.769 234.788 122.91 234.888 123.09 235.021 123.274 235.159 123.386 235.353 123.424 235.604 123.457 235.86 123.357 236.118 123.124 236.38V236.38L113.249 247.436C112.917 247.808 112.542 247.903 112.126 247.722V247.722C112.009 247.671 111.872 247.576 111.716 247.437 111.566 247.302 111.466 247.105 111.418 246.845 111.374 246.58 111.469 246.317 111.703 246.055ZM128.502 241.293L124.787 238.578C124.537 238.395 124.41 238.185 124.407 237.95 124.4 237.719 124.461 237.517 124.588 237.343 124.715 237.168 124.892 237.047 125.117 236.978 125.339 236.915 125.575 236.974 125.825 237.157V237.157L134.928 243.811C135.162 243.982 135.285 244.185 135.297 244.419 135.3 244.655 135.238 244.86 135.111 245.034 134.983 245.208 134.804 245.323 134.571 245.379 134.334 245.44 134.107 245.39 133.89 245.231V245.231L130.2 242.534 121.887 253.906C121.609 254.287 121.254 254.424 120.822 254.318V254.318C120.701 254.279 120.555 254.198 120.387 254.074 120.223 253.955 120.097 253.762 120.007 253.496 119.922 253.225 119.982 252.948 120.189 252.665V252.665ZM128.854 258.752L136.819 246.249C137.054 245.879 137.397 245.73 137.847 245.801V245.801C137.961 245.849 138.116 245.925 138.315 246.027 138.519 246.133 138.66 246.307 138.738 246.549 138.812 246.796 138.755 247.067 138.567 247.363V247.363L130.602 259.865C130.334 260.286 129.98 260.44 129.54 260.328V260.328C129.416 260.297 129.266 260.225 129.09 260.113 128.919 260.004 128.789 259.825 128.7 259.577 128.614 259.322 128.665 259.047 128.854 258.751ZM143.309 267.65L134.534 263.156C134.186 262.978 133.947 262.764 133.816 262.516V262.516C133.708 262.18 133.715 261.892 133.838 261.652 133.961 261.412 134.144 261.218 134.387 261.069V261.069L148.711 253.443 141.115 249.553C140.875 249.43 140.732 249.251 140.686 249.015 140.631 248.782 140.652 248.57 140.751 248.378 140.849 248.186 141.004 248.038 141.216 247.935 141.425 247.837 141.659 247.855 141.917 247.987V247.987L150.881 252.578C151.175 252.729 151.373 252.933 151.476 253.19 151.57 253.45 151.571 253.67 151.479 253.85V253.85C151.31 254.18 151.088 254.415 150.812 254.554V254.554L136.447 262.193 144.097 266.111C144.385 266.259 144.545 266.443 144.576 266.663 144.598 266.886 144.556 267.1 144.452 267.304 144.35 267.502 144.198 267.644 143.995 267.729 143.79 267.806 143.561 267.779 143.309 267.65ZM157.064 273.119L148.598 269.835C148.365 269.745 148.203 269.595 148.111 269.385V269.385C147.93 269.048 147.889 268.754 147.987 268.502V268.502L153.337 254.71C153.478 254.345 153.782 254.13 154.248 254.065V254.065C154.382 254.074 154.513 254.081 154.641 254.088V254.088L162.852 257.273C163.141 257.385 163.319 257.551 163.385 257.772 163.449 257.999 163.442 258.214 163.364 258.415 163.286 258.616 163.138 258.772 162.922 258.883 162.703 259.001 162.467 259.011 162.216 258.913V258.913L154.985 256.108 152.963 261.322 159.845 263.991C160.134 264.103 160.313 264.267 160.382 264.481 160.456 264.698 160.454 264.911 160.373 265.118V265.118C160.298 265.313 160.152 265.455 159.936 265.545 159.725 265.644 159.493 265.644 159.242 265.547V265.547L152.359 262.877 150.147 268.581 157.689 271.507C157.959 271.611 158.131 271.775 158.203 271.999 158.267 272.226 158.257 272.446 158.174 272.66 158.094 272.867 157.951 273.022 157.746 273.123 157.542 273.218 157.315 273.216 157.064 273.119ZM178.204 275.056L178.234 275.061 185.894 263.869C186.342 263.236 186.661 262.844 186.852 262.693V262.693C187.252 262.449 187.63 262.358 187.989 262.422 188.341 262.484 188.606 262.572 188.784 262.686 188.963 262.8 189.109 262.942 189.222 263.113V263.113C189.506 263.519 189.598 264.004 189.498 264.568V264.568L187.042 278.439C186.988 278.744 186.851 278.956 186.632 279.074 186.412 279.193 186.183 279.231 185.944 279.189 185.698 279.145 185.499 279.031 185.347 278.847 185.188 278.661 185.136 278.416 185.19 278.111V278.111L187.602 264.489 179.23 276.685C178.877 277.246 178.399 277.473 177.795 277.366V277.366C177.264 277.272 176.899 276.896 176.701 276.238V276.238L173.054 261.975 170.653 275.536C170.599 275.842 170.462 276.054 170.242 276.172 170.016 276.29 169.784 276.327 169.545 276.285 169.299 276.241 169.094 276.126 168.928 275.94 168.763 275.753 168.707 275.507 168.761 275.201V275.201L171.217 261.331C171.375 260.442 171.8 259.932 172.494 259.801V259.801C172.721 259.8 172.955 259.811 173.197 259.833 173.433 259.855 173.642 259.912 173.824 260.006 174.006 260.1 174.156 260.219 174.274 260.363V260.363C174.483 260.612 174.706 261.134 174.942 261.929V261.929ZM202.47 279.72L193.392 279.504C193.143 279.498 192.939 279.412 192.781 279.247V279.247C192.497 278.99 192.358 278.728 192.365 278.458V278.458L192.716 263.668C192.725 263.277 192.938 262.972 193.355 262.753V262.753C193.484 262.716 193.61 262.678 193.732 262.641V262.641L202.537 262.85C202.847 262.857 203.07 262.953 203.208 263.139 203.345 263.331 203.411 263.535 203.406 263.75 203.4 263.966 203.315 264.163 203.149 264.341 202.983 264.526 202.765 264.615 202.495 264.609V264.609L194.741 264.425 194.609 270.015 201.988 270.19C202.298 270.198 202.522 270.29 202.659 270.469 202.803 270.648 202.873 270.848 202.868 271.071V271.071C202.863 271.28 202.774 271.463 202.602 271.621 202.436 271.785 202.218 271.865 201.949 271.858V271.858L194.569 271.683 194.424 277.799 202.511 277.991C202.801 277.998 203.018 278.094 203.162 278.28 203.299 278.472 203.364 278.682 203.359 278.911 203.354 279.134 203.272 279.327 203.113 279.492 202.954 279.65 202.74 279.726 202.47 279.72ZM207.52 278.384L206.039 263.909C205.999 263.52 206.101 263.191 206.344 262.922V262.922C206.56 262.649 206.81 262.478 207.095 262.408V262.408C207.671 262.349 208.144 262.528 208.512 262.944V262.944L218.808 275.461 217.466 262.343C217.433 262.014 217.47 261.78 217.577 261.64V261.64C217.778 261.417 217.989 261.293 218.21 261.271 218.425 261.249 218.595 261.252 218.72 261.28 218.844 261.308 218.951 261.358 219.04 261.43V261.43C219.285 261.574 219.414 261.812 219.428 262.142V262.142L220.903 276.557C220.965 277.168 220.711 277.628 220.139 277.937V277.937C220.005 278.011 219.823 278.061 219.595 278.084V278.084C219.106 278.134 218.653 277.953 218.239 277.542V277.542L208.182 265.184 209.512 278.18C209.541 278.469 209.481 278.682 209.333 278.819V278.819C209.106 279.052 208.862 279.182 208.6 279.209 208.332 279.236 208.093 279.183 207.882 279.049 207.672 278.914 207.551 278.693 207.52 278.384ZM225.91 261.247L221.44 262.337C221.139 262.411 220.897 262.373 220.715 262.223 220.534 262.079 220.418 261.903 220.367 261.693 220.316 261.484 220.337 261.271 220.43 261.054 220.524 260.843 220.722 260.701 221.023 260.628V260.628L231.977 257.956C232.259 257.888 232.493 257.924 232.68 258.066 232.862 258.216 232.979 258.395 233.03 258.605 233.081 258.814 233.053 259.026 232.946 259.24 232.84 259.46 232.656 259.602 232.394 259.666V259.666L227.953 260.749 231.291 274.433C231.403 274.892 231.279 275.252 230.92 275.513V275.513C230.811 275.581 230.656 275.64 230.453 275.689 230.256 275.737 230.027 275.71 229.766 275.607 229.504 275.497 229.331 275.272 229.248 274.932V274.932ZM242.001 256.239L252.102 267.127C252.164 267.234 252.215 267.344 252.257 267.458 252.302 267.578 252.317 267.705 252.302 267.84 252.288 267.975 252.245 268.092 252.173 268.19V268.19C252.041 268.433 251.861 268.597 251.633 268.682V268.682C251.165 268.855 250.781 268.768 250.479 268.42V268.42L247.755 265.439 239.934 268.342 239.842 272.366C239.859 272.82 239.666 273.122 239.261 273.272 238.857 273.422 238.483 273.363 238.139 273.096V273.096C238.04 273.003 237.971 272.906 237.934 272.805 237.899 272.71 237.881 272.576 237.882 272.403V272.403L238.351 257.593C238.378 256.483 238.619 255.768 239.076 255.448V255.448C239.201 255.379 239.365 255.287 239.565 255.169V255.169C239.951 255.026 240.27 255.004 240.523 255.105V255.105C240.92 255.224 241.412 255.602 242.001 256.239ZM240.121 256.84L239.914 266.602 246.664 264.097ZM264.435 262.398L256.701 266.286C256.279 266.498 255.892 266.463 255.539 266.18V266.18C255.43 266.099 255.342 265.992 255.276 265.86V265.86L248.617 252.615C248.402 252.188 248.456 251.814 248.777 251.493V251.493C248.883 251.418 249.021 251.326 249.193 251.217 249.37 251.105 249.586 251.076 249.839 251.129 250.102 251.186 250.312 251.371 250.469 251.684V251.684L256.81 264.296 263.658 260.854C263.929 260.717 264.164 260.697 264.363 260.793 264.562 260.889 264.71 261.034 264.807 261.226 264.904 261.419 264.932 261.632 264.89 261.864 264.839 262.093 264.688 262.271 264.435 262.399ZM276.81 242.226L273.149 237.211C272.867 236.824 272.875 236.435 273.173 236.042V236.042C273.259 235.954 273.372 235.846 273.513 235.719 273.648 235.595 273.856 235.531 274.136 235.527 274.421 235.528 274.666 235.67 274.873 235.953V235.953L283.612 247.927C283.795 248.178 283.858 248.424 283.801 248.666V248.666C283.722 248.982 283.571 249.221 283.348 249.384 283.125 249.547 282.879 249.627 282.609 249.623 282.335 249.614 282.095 249.468 281.889 249.185V249.185L277.847 243.647 270.684 248.875 274.725 254.413C274.908 254.663 274.979 254.904 274.938 255.134V255.134C274.865 255.446 274.712 255.687 274.478 255.858 274.244 256.029 273.997 256.108 273.739 256.097 273.47 256.084 273.233 255.936 273.026 255.653V255.653L264.287 243.679C264.005 243.292 264.005 242.908 264.286 242.528V242.528C264.377 242.436 264.491 242.328 264.626 242.205 264.766 242.077 264.974 242.013 265.249 242.012 265.534 242.013 265.779 242.156 265.986 242.439V242.439L269.646 247.454ZM295.435 238.108L288.858 244.369C288.677 244.541 288.472 244.624 288.244 244.618V244.618C287.862 244.637 287.578 244.549 287.392 244.354V244.354L277.192 233.638C276.923 233.355 276.858 232.989 276.998 232.539V232.539C277.062 232.422 277.125 232.306 277.185 232.193V232.193L283.564 226.121C283.789 225.907 284.015 225.817 284.243 225.852 284.476 225.891 284.667 225.988 284.816 226.145 284.964 226.301 285.043 226.501 285.051 226.744 285.064 226.992 284.973 227.21 284.778 227.395V227.395L279.16 232.743 283.015 236.793 288.362 231.704C288.587 231.49 288.811 231.398 289.034 231.427 289.262 231.452 289.453 231.545 289.606 231.706V231.706C289.75 231.857 289.817 232.05 289.807 232.283 289.806 232.517 289.708 232.726 289.512 232.912V232.912L284.166 238.002 288.383 242.433 294.243 236.856C294.453 236.656 294.674 236.571 294.907 236.6 295.14 236.639 295.335 236.742 295.493 236.908 295.647 237.069 295.725 237.264 295.729 237.493 295.728 237.717 295.63 237.922 295.435 238.108ZM292.108 218.498L306.364 222.666C306.471 222.726 306.572 222.794 306.667 222.87 306.766 222.951 306.845 223.052 306.901 223.176 306.958 223.299 306.981 223.421 306.97 223.542V223.542C306.981 223.819 306.91 224.052 306.758 224.241V224.241C306.446 224.63 306.07 224.752 305.633 224.608V224.608L301.766 223.446 296.54 229.948 298.525 233.451C298.772 233.832 298.761 234.19 298.49 234.526 298.22 234.863 297.869 235.004 297.436 234.95V234.95C297.304 234.922 297.195 234.873 297.111 234.806 297.032 234.743 296.949 234.637 296.861 234.488V234.488L289.669 221.532C289.123 220.566 288.964 219.828 289.191 219.319V219.319C289.264 219.196 289.357 219.032 289.469 218.828V218.828C289.726 218.508 289.989 218.326 290.258 218.282V218.282C290.659 218.181 291.276 218.253 292.108 218.498ZM290.802 219.978L295.63 228.465 300.141 222.853ZM314.528 212.285L309.881 219.587C309.628 219.985 309.277 220.154 308.829 220.092V220.092C308.694 220.078 308.564 220.031 308.438 219.952V219.952L295.932 211.994C295.528 211.737 295.382 211.388 295.494 210.948V210.948C295.546 210.829 295.617 210.679 295.709 210.498 295.804 210.31 295.974 210.175 296.219 210.091 296.474 210.005 296.749 210.057 297.044 210.245V210.245L308.954 217.823 313.069 211.356C313.232 211.1 313.423 210.963 313.644 210.943 313.864 210.923 314.065 210.971 314.247 211.087 314.429 211.203 314.562 211.371 314.645 211.592 314.719 211.815 314.68 212.046 314.528 212.285ZM304.45 198.558L302.445 202.699C302.31 202.978 302.126 203.14 301.895 203.185 301.669 203.234 301.459 203.211 301.265 203.117 301.071 203.023 300.92 202.871 300.812 202.661 300.709 202.454 300.726 202.211 300.861 201.932V201.932L305.775 191.784C305.901 191.524 306.078 191.366 306.307 191.312 306.538 191.267 306.751 191.291 306.945 191.385 307.14 191.479 307.285 191.636 307.381 191.854 307.483 192.076 307.476 192.309 307.358 192.551V192.551L305.366 196.665 318.044 202.804C318.469 203.009 318.668 203.334 318.64 203.778V203.778C318.624 203.904 318.57 204.062 318.479 204.25 318.391 204.432 318.224 204.591 317.978 204.727 317.727 204.859 317.443 204.85 317.128 204.697V204.697ZM317.061 181.786L311.215 179.694C310.765 179.532 310.552 179.206 310.578 178.714V178.714C310.6 178.593 310.633 178.44 310.678 178.255 310.72 178.077 310.856 177.908 311.085 177.746 311.321 177.587 311.604 177.567 311.934 177.685V177.685L325.892 182.68C326.184 182.784 326.374 182.952 326.463 183.185V183.185C326.575 183.49 326.585 183.773 326.492 184.033 326.399 184.293 326.24 184.498 326.015 184.646 325.783 184.792 325.503 184.807 325.173 184.688V184.688L318.718 182.378 315.73 190.728 322.185 193.038C322.477 193.143 322.67 193.301 322.766 193.515V193.515C322.881 193.814 322.89 194.099 322.792 194.372 322.694 194.645 322.535 194.85 322.315 194.986 322.086 195.126 321.806 195.137 321.476 195.018V195.018L307.519 190.024C307.068 189.862 306.852 189.545 306.871 189.072V189.072C306.895 188.945 306.928 188.792 306.971 188.614 307.015 188.429 307.151 188.26 307.378 188.105 307.614 187.946 307.897 187.925 308.227 188.043V188.043L314.073 190.135ZM68.113 145.768C68.113 143.968 69.572 142.509 71.372 142.509 73.173 142.509 74.632 143.968 74.632 145.768 74.632 147.569 73.173 149.028 71.372 149.028 69.572 149.028 68.113 147.569 68.113 145.768ZM322.684 145.768C322.684 143.968 324.144 142.509 325.944 142.509 327.744 142.509 329.204 143.968 329.204 145.768 329.204 147.569 327.744 149.028 325.944 149.028 324.144 149.028 322.684 147.569 322.684 145.768Z" fill="#8b3c7f" data-fill-palette-color="primary"></path></svg></g></svg></g></svg></g></svg></g><defs></defs></svg><rect width="395.52" height="279.72" fill="none" stroke="none" visibility="hidden"></rect></g></svg></g></svg>